<mxfile host="app.diagrams.net" agent="Mozilla/5.0 (Windows NT 10.0; Win64; x64) AppleWebKit/537.36 (KHTML, like Gecko) Chrome/140.0.0.0 Safari/537.36" version="28.0.6">
  <diagram name="PÃ¡gina-1" id="lQs7eOBjieutcPLEZlFO">
    <mxGraphModel dx="2194" dy="3502" grid="1" gridSize="10" guides="1" tooltips="1" connect="1" arrows="1" fold="1" page="1" pageScale="1" pageWidth="1700" pageHeight="1100" math="0" shadow="0">
      <root>
        <mxCell id="0" />
        <mxCell id="1" parent="0" />
        <mxCell id="MJWi9brYNOk2Rg-yx1QD-1" value="clientes" style="shape=table;startSize=30;container=1;collapsible=1;childLayout=tableLayout;fixedRows=1;rowLines=0;fontStyle=1;align=center;resizeLast=1;fillColor=#dae8fc;strokeColor=#6c8ebf;" parent="1" vertex="1">
          <mxGeometry x="1380" y="-640" width="270" height="180" as="geometry" />
        </mxCell>
        <mxCell id="MJWi9brYNOk2Rg-yx1QD-2" value="" style="shape=tableRow;horizontal=0;startSize=0;swimlaneHead=0;swimlaneBody=0;fillColor=none;collapsible=0;dropTarget=0;points=[[0,0.5],[1,0.5]];portConstraint=eastwest;strokeColor=inherit;top=0;left=0;right=0;bottom=1;" parent="MJWi9brYNOk2Rg-yx1QD-1" vertex="1">
          <mxGeometry y="30" width="270" height="30" as="geometry" />
        </mxCell>
        <mxCell id="MJWi9brYNOk2Rg-yx1QD-3" value="PK" style="shape=partialRectangle;overflow=hidden;connectable=0;fillColor=none;strokeColor=inherit;top=0;left=0;bottom=0;right=0;fontStyle=1;" parent="MJWi9brYNOk2Rg-yx1QD-2" vertex="1">
          <mxGeometry width="30" height="30" as="geometry">
            <mxRectangle width="30" height="30" as="alternateBounds" />
          </mxGeometry>
        </mxCell>
        <mxCell id="MJWi9brYNOk2Rg-yx1QD-4" value="id_cliente INTEGER  AUTOINCREMENT" style="shape=partialRectangle;overflow=hidden;connectable=0;fillColor=none;align=left;strokeColor=inherit;top=0;left=0;bottom=0;right=0;spacingLeft=6;fontStyle=5;" parent="MJWi9brYNOk2Rg-yx1QD-2" vertex="1">
          <mxGeometry x="30" width="240" height="30" as="geometry">
            <mxRectangle width="240" height="30" as="alternateBounds" />
          </mxGeometry>
        </mxCell>
        <mxCell id="MJWi9brYNOk2Rg-yx1QD-5" value="" style="shape=tableRow;horizontal=0;startSize=0;swimlaneHead=0;swimlaneBody=0;fillColor=none;collapsible=0;dropTarget=0;points=[[0,0.5],[1,0.5]];portConstraint=eastwest;strokeColor=inherit;top=0;left=0;right=0;bottom=0;" parent="MJWi9brYNOk2Rg-yx1QD-1" vertex="1">
          <mxGeometry y="60" width="270" height="30" as="geometry" />
        </mxCell>
        <mxCell id="MJWi9brYNOk2Rg-yx1QD-6" value="" style="shape=partialRectangle;overflow=hidden;connectable=0;fillColor=none;strokeColor=inherit;top=0;left=0;bottom=0;right=0;" parent="MJWi9brYNOk2Rg-yx1QD-5" vertex="1">
          <mxGeometry width="30" height="30" as="geometry">
            <mxRectangle width="30" height="30" as="alternateBounds" />
          </mxGeometry>
        </mxCell>
        <mxCell id="MJWi9brYNOk2Rg-yx1QD-7" value="nombre TEXT NOT NULL" style="shape=partialRectangle;overflow=hidden;connectable=0;fillColor=none;align=left;strokeColor=inherit;top=0;left=0;bottom=0;right=0;spacingLeft=6;" parent="MJWi9brYNOk2Rg-yx1QD-5" vertex="1">
          <mxGeometry x="30" width="240" height="30" as="geometry">
            <mxRectangle width="240" height="30" as="alternateBounds" />
          </mxGeometry>
        </mxCell>
        <mxCell id="MJWi9brYNOk2Rg-yx1QD-8" value="" style="shape=tableRow;horizontal=0;startSize=0;swimlaneHead=0;swimlaneBody=0;fillColor=none;collapsible=0;dropTarget=0;points=[[0,0.5],[1,0.5]];portConstraint=eastwest;strokeColor=inherit;top=0;left=0;right=0;bottom=0;" parent="MJWi9brYNOk2Rg-yx1QD-1" vertex="1">
          <mxGeometry y="90" width="270" height="30" as="geometry" />
        </mxCell>
        <mxCell id="MJWi9brYNOk2Rg-yx1QD-9" value="" style="shape=partialRectangle;overflow=hidden;connectable=0;fillColor=none;strokeColor=inherit;top=0;left=0;bottom=0;right=0;" parent="MJWi9brYNOk2Rg-yx1QD-8" vertex="1">
          <mxGeometry width="30" height="30" as="geometry">
            <mxRectangle width="30" height="30" as="alternateBounds" />
          </mxGeometry>
        </mxCell>
        <mxCell id="MJWi9brYNOk2Rg-yx1QD-10" value="correo TEXT" style="shape=partialRectangle;overflow=hidden;connectable=0;fillColor=none;align=left;strokeColor=inherit;top=0;left=0;bottom=0;right=0;spacingLeft=6;" parent="MJWi9brYNOk2Rg-yx1QD-8" vertex="1">
          <mxGeometry x="30" width="240" height="30" as="geometry">
            <mxRectangle width="240" height="30" as="alternateBounds" />
          </mxGeometry>
        </mxCell>
        <mxCell id="MJWi9brYNOk2Rg-yx1QD-11" value="" style="shape=tableRow;horizontal=0;startSize=0;swimlaneHead=0;swimlaneBody=0;fillColor=none;collapsible=0;dropTarget=0;points=[[0,0.5],[1,0.5]];portConstraint=eastwest;strokeColor=inherit;top=0;left=0;right=0;bottom=0;" parent="MJWi9brYNOk2Rg-yx1QD-1" vertex="1">
          <mxGeometry y="120" width="270" height="30" as="geometry" />
        </mxCell>
        <mxCell id="MJWi9brYNOk2Rg-yx1QD-12" value="" style="shape=partialRectangle;overflow=hidden;connectable=0;fillColor=none;strokeColor=inherit;top=0;left=0;bottom=0;right=0;" parent="MJWi9brYNOk2Rg-yx1QD-11" vertex="1">
          <mxGeometry width="30" height="30" as="geometry">
            <mxRectangle width="30" height="30" as="alternateBounds" />
          </mxGeometry>
        </mxCell>
        <mxCell id="MJWi9brYNOk2Rg-yx1QD-13" value="telefono TEXT" style="shape=partialRectangle;overflow=hidden;connectable=0;fillColor=none;align=left;strokeColor=inherit;top=0;left=0;bottom=0;right=0;spacingLeft=6;" parent="MJWi9brYNOk2Rg-yx1QD-11" vertex="1">
          <mxGeometry x="30" width="240" height="30" as="geometry">
            <mxRectangle width="240" height="30" as="alternateBounds" />
          </mxGeometry>
        </mxCell>
        <mxCell id="MJWi9brYNOk2Rg-yx1QD-14" value="" style="shape=tableRow;horizontal=0;startSize=0;swimlaneHead=0;swimlaneBody=0;fillColor=none;collapsible=0;dropTarget=0;points=[[0,0.5],[1,0.5]];portConstraint=eastwest;strokeColor=inherit;top=0;left=0;right=0;bottom=0;" parent="MJWi9brYNOk2Rg-yx1QD-1" vertex="1">
          <mxGeometry y="150" width="270" height="30" as="geometry" />
        </mxCell>
        <mxCell id="MJWi9brYNOk2Rg-yx1QD-15" value="" style="shape=partialRectangle;overflow=hidden;connectable=0;fillColor=none;strokeColor=inherit;top=0;left=0;bottom=0;right=0;" parent="MJWi9brYNOk2Rg-yx1QD-14" vertex="1">
          <mxGeometry width="30" height="30" as="geometry">
            <mxRectangle width="30" height="30" as="alternateBounds" />
          </mxGeometry>
        </mxCell>
        <mxCell id="MJWi9brYNOk2Rg-yx1QD-16" value="direccion TEXT" style="shape=partialRectangle;overflow=hidden;connectable=0;fillColor=none;align=left;strokeColor=inherit;top=0;left=0;bottom=0;right=0;spacingLeft=6;" parent="MJWi9brYNOk2Rg-yx1QD-14" vertex="1">
          <mxGeometry x="30" width="240" height="30" as="geometry">
            <mxRectangle width="240" height="30" as="alternateBounds" />
          </mxGeometry>
        </mxCell>
        <mxCell id="MJWi9brYNOk2Rg-yx1QD-100" style="edgeStyle=orthogonalEdgeStyle;rounded=0;orthogonalLoop=1;jettySize=auto;html=1;" parent="1" source="MJWi9brYNOk2Rg-yx1QD-18" target="MJWi9brYNOk2Rg-yx1QD-75" edge="1">
          <mxGeometry relative="1" as="geometry" />
        </mxCell>
        <mxCell id="MJWi9brYNOk2Rg-yx1QD-17" value="productos" style="shape=table;startSize=30;container=1;collapsible=1;childLayout=tableLayout;fixedRows=1;rowLines=0;fontStyle=1;align=center;resizeLast=1;fillColor=#dae8fc;strokeColor=#6c8ebf;" parent="1" vertex="1">
          <mxGeometry x="930" y="-900" width="280" height="180" as="geometry" />
        </mxCell>
        <mxCell id="MJWi9brYNOk2Rg-yx1QD-18" value="" style="shape=tableRow;horizontal=0;startSize=0;swimlaneHead=0;swimlaneBody=0;fillColor=none;collapsible=0;dropTarget=0;points=[[0,0.5],[1,0.5]];portConstraint=eastwest;strokeColor=inherit;top=0;left=0;right=0;bottom=1;" parent="MJWi9brYNOk2Rg-yx1QD-17" vertex="1">
          <mxGeometry y="30" width="280" height="30" as="geometry" />
        </mxCell>
        <mxCell id="MJWi9brYNOk2Rg-yx1QD-19" value="PK" style="shape=partialRectangle;overflow=hidden;connectable=0;fillColor=none;strokeColor=inherit;top=0;left=0;bottom=0;right=0;fontStyle=1;" parent="MJWi9brYNOk2Rg-yx1QD-18" vertex="1">
          <mxGeometry width="30" height="30" as="geometry">
            <mxRectangle width="30" height="30" as="alternateBounds" />
          </mxGeometry>
        </mxCell>
        <mxCell id="MJWi9brYNOk2Rg-yx1QD-20" value="id_producto INTEGER  AUTOINCREMENT" style="shape=partialRectangle;overflow=hidden;connectable=0;fillColor=none;align=left;strokeColor=inherit;top=0;left=0;bottom=0;right=0;spacingLeft=6;fontStyle=5;" parent="MJWi9brYNOk2Rg-yx1QD-18" vertex="1">
          <mxGeometry x="30" width="250" height="30" as="geometry">
            <mxRectangle width="250" height="30" as="alternateBounds" />
          </mxGeometry>
        </mxCell>
        <mxCell id="MJWi9brYNOk2Rg-yx1QD-21" value="" style="shape=tableRow;horizontal=0;startSize=0;swimlaneHead=0;swimlaneBody=0;fillColor=none;collapsible=0;dropTarget=0;points=[[0,0.5],[1,0.5]];portConstraint=eastwest;strokeColor=inherit;top=0;left=0;right=0;bottom=0;" parent="MJWi9brYNOk2Rg-yx1QD-17" vertex="1">
          <mxGeometry y="60" width="280" height="30" as="geometry" />
        </mxCell>
        <mxCell id="MJWi9brYNOk2Rg-yx1QD-22" value="" style="shape=partialRectangle;overflow=hidden;connectable=0;fillColor=none;strokeColor=inherit;top=0;left=0;bottom=0;right=0;" parent="MJWi9brYNOk2Rg-yx1QD-21" vertex="1">
          <mxGeometry width="30" height="30" as="geometry">
            <mxRectangle width="30" height="30" as="alternateBounds" />
          </mxGeometry>
        </mxCell>
        <mxCell id="MJWi9brYNOk2Rg-yx1QD-23" value="nombre TEXT NOT NULL" style="shape=partialRectangle;overflow=hidden;connectable=0;fillColor=none;align=left;strokeColor=inherit;top=0;left=0;bottom=0;right=0;spacingLeft=6;" parent="MJWi9brYNOk2Rg-yx1QD-21" vertex="1">
          <mxGeometry x="30" width="250" height="30" as="geometry">
            <mxRectangle width="250" height="30" as="alternateBounds" />
          </mxGeometry>
        </mxCell>
        <mxCell id="MJWi9brYNOk2Rg-yx1QD-24" value="" style="shape=tableRow;horizontal=0;startSize=0;swimlaneHead=0;swimlaneBody=0;fillColor=none;collapsible=0;dropTarget=0;points=[[0,0.5],[1,0.5]];portConstraint=eastwest;strokeColor=inherit;top=0;left=0;right=0;bottom=0;" parent="MJWi9brYNOk2Rg-yx1QD-17" vertex="1">
          <mxGeometry y="90" width="280" height="30" as="geometry" />
        </mxCell>
        <mxCell id="MJWi9brYNOk2Rg-yx1QD-25" value="" style="shape=partialRectangle;overflow=hidden;connectable=0;fillColor=none;strokeColor=inherit;top=0;left=0;bottom=0;right=0;" parent="MJWi9brYNOk2Rg-yx1QD-24" vertex="1">
          <mxGeometry width="30" height="30" as="geometry">
            <mxRectangle width="30" height="30" as="alternateBounds" />
          </mxGeometry>
        </mxCell>
        <mxCell id="MJWi9brYNOk2Rg-yx1QD-26" value="descripcion TEXT" style="shape=partialRectangle;overflow=hidden;connectable=0;fillColor=none;align=left;strokeColor=inherit;top=0;left=0;bottom=0;right=0;spacingLeft=6;" parent="MJWi9brYNOk2Rg-yx1QD-24" vertex="1">
          <mxGeometry x="30" width="250" height="30" as="geometry">
            <mxRectangle width="250" height="30" as="alternateBounds" />
          </mxGeometry>
        </mxCell>
        <mxCell id="MJWi9brYNOk2Rg-yx1QD-27" value="" style="shape=tableRow;horizontal=0;startSize=0;swimlaneHead=0;swimlaneBody=0;fillColor=none;collapsible=0;dropTarget=0;points=[[0,0.5],[1,0.5]];portConstraint=eastwest;strokeColor=inherit;top=0;left=0;right=0;bottom=0;" parent="MJWi9brYNOk2Rg-yx1QD-17" vertex="1">
          <mxGeometry y="120" width="280" height="30" as="geometry" />
        </mxCell>
        <mxCell id="MJWi9brYNOk2Rg-yx1QD-28" value="" style="shape=partialRectangle;overflow=hidden;connectable=0;fillColor=none;strokeColor=inherit;top=0;left=0;bottom=0;right=0;" parent="MJWi9brYNOk2Rg-yx1QD-27" vertex="1">
          <mxGeometry width="30" height="30" as="geometry">
            <mxRectangle width="30" height="30" as="alternateBounds" />
          </mxGeometry>
        </mxCell>
        <mxCell id="MJWi9brYNOk2Rg-yx1QD-29" value="precio REAL NOT NULL" style="shape=partialRectangle;overflow=hidden;connectable=0;fillColor=none;align=left;strokeColor=inherit;top=0;left=0;bottom=0;right=0;spacingLeft=6;" parent="MJWi9brYNOk2Rg-yx1QD-27" vertex="1">
          <mxGeometry x="30" width="250" height="30" as="geometry">
            <mxRectangle width="250" height="30" as="alternateBounds" />
          </mxGeometry>
        </mxCell>
        <mxCell id="MJWi9brYNOk2Rg-yx1QD-30" value="" style="shape=tableRow;horizontal=0;startSize=0;swimlaneHead=0;swimlaneBody=0;fillColor=none;collapsible=0;dropTarget=0;points=[[0,0.5],[1,0.5]];portConstraint=eastwest;strokeColor=inherit;top=0;left=0;right=0;bottom=0;" parent="MJWi9brYNOk2Rg-yx1QD-17" vertex="1">
          <mxGeometry y="150" width="280" height="30" as="geometry" />
        </mxCell>
        <mxCell id="MJWi9brYNOk2Rg-yx1QD-31" value="" style="shape=partialRectangle;overflow=hidden;connectable=0;fillColor=none;strokeColor=inherit;top=0;left=0;bottom=0;right=0;" parent="MJWi9brYNOk2Rg-yx1QD-30" vertex="1">
          <mxGeometry width="30" height="30" as="geometry">
            <mxRectangle width="30" height="30" as="alternateBounds" />
          </mxGeometry>
        </mxCell>
        <mxCell id="MJWi9brYNOk2Rg-yx1QD-32" value="stock INTEGER DEFAULT 0" style="shape=partialRectangle;overflow=hidden;connectable=0;fillColor=none;align=left;strokeColor=inherit;top=0;left=0;bottom=0;right=0;spacingLeft=6;" parent="MJWi9brYNOk2Rg-yx1QD-30" vertex="1">
          <mxGeometry x="30" width="250" height="30" as="geometry">
            <mxRectangle width="250" height="30" as="alternateBounds" />
          </mxGeometry>
        </mxCell>
        <mxCell id="MJWi9brYNOk2Rg-yx1QD-33" value="ventas" style="shape=table;startSize=30;container=1;collapsible=1;childLayout=tableLayout;fixedRows=1;rowLines=0;fontStyle=1;align=center;resizeLast=1;fillColor=#dae8fc;strokeColor=#6c8ebf;" parent="1" vertex="1">
          <mxGeometry x="830" y="-570" width="380" height="180" as="geometry" />
        </mxCell>
        <mxCell id="MJWi9brYNOk2Rg-yx1QD-34" value="" style="shape=tableRow;horizontal=0;startSize=0;swimlaneHead=0;swimlaneBody=0;fillColor=none;collapsible=0;dropTarget=0;points=[[0,0.5],[1,0.5]];portConstraint=eastwest;strokeColor=inherit;top=0;left=0;right=0;bottom=1;" parent="MJWi9brYNOk2Rg-yx1QD-33" vertex="1">
          <mxGeometry y="30" width="380" height="30" as="geometry" />
        </mxCell>
        <mxCell id="MJWi9brYNOk2Rg-yx1QD-35" value="PK" style="shape=partialRectangle;overflow=hidden;connectable=0;fillColor=none;strokeColor=inherit;top=0;left=0;bottom=0;right=0;fontStyle=1;" parent="MJWi9brYNOk2Rg-yx1QD-34" vertex="1">
          <mxGeometry width="30" height="30" as="geometry">
            <mxRectangle width="30" height="30" as="alternateBounds" />
          </mxGeometry>
        </mxCell>
        <mxCell id="MJWi9brYNOk2Rg-yx1QD-36" value="id_venta INTEGER  AUTOINCREMENT" style="shape=partialRectangle;overflow=hidden;connectable=0;fillColor=none;align=left;strokeColor=inherit;top=0;left=0;bottom=0;right=0;spacingLeft=6;fontStyle=5;" parent="MJWi9brYNOk2Rg-yx1QD-34" vertex="1">
          <mxGeometry x="30" width="350" height="30" as="geometry">
            <mxRectangle width="350" height="30" as="alternateBounds" />
          </mxGeometry>
        </mxCell>
        <mxCell id="MJWi9brYNOk2Rg-yx1QD-37" value="" style="shape=tableRow;horizontal=0;startSize=0;swimlaneHead=0;swimlaneBody=0;fillColor=none;collapsible=0;dropTarget=0;points=[[0,0.5],[1,0.5]];portConstraint=eastwest;strokeColor=inherit;top=0;left=0;right=0;bottom=0;" parent="MJWi9brYNOk2Rg-yx1QD-33" vertex="1">
          <mxGeometry y="60" width="380" height="30" as="geometry" />
        </mxCell>
        <mxCell id="MJWi9brYNOk2Rg-yx1QD-38" value="" style="shape=partialRectangle;overflow=hidden;connectable=0;fillColor=none;strokeColor=inherit;top=0;left=0;bottom=0;right=0;" parent="MJWi9brYNOk2Rg-yx1QD-37" vertex="1">
          <mxGeometry width="30" height="30" as="geometry">
            <mxRectangle width="30" height="30" as="alternateBounds" />
          </mxGeometry>
        </mxCell>
        <mxCell id="MJWi9brYNOk2Rg-yx1QD-39" value="id_cliente INTEGER" style="shape=partialRectangle;overflow=hidden;connectable=0;fillColor=none;align=left;strokeColor=inherit;top=0;left=0;bottom=0;right=0;spacingLeft=6;" parent="MJWi9brYNOk2Rg-yx1QD-37" vertex="1">
          <mxGeometry x="30" width="350" height="30" as="geometry">
            <mxRectangle width="350" height="30" as="alternateBounds" />
          </mxGeometry>
        </mxCell>
        <mxCell id="MJWi9brYNOk2Rg-yx1QD-40" value="" style="shape=tableRow;horizontal=0;startSize=0;swimlaneHead=0;swimlaneBody=0;fillColor=none;collapsible=0;dropTarget=0;points=[[0,0.5],[1,0.5]];portConstraint=eastwest;strokeColor=inherit;top=0;left=0;right=0;bottom=0;" parent="MJWi9brYNOk2Rg-yx1QD-33" vertex="1">
          <mxGeometry y="90" width="380" height="30" as="geometry" />
        </mxCell>
        <mxCell id="MJWi9brYNOk2Rg-yx1QD-41" value="" style="shape=partialRectangle;overflow=hidden;connectable=0;fillColor=none;strokeColor=inherit;top=0;left=0;bottom=0;right=0;" parent="MJWi9brYNOk2Rg-yx1QD-40" vertex="1">
          <mxGeometry width="30" height="30" as="geometry">
            <mxRectangle width="30" height="30" as="alternateBounds" />
          </mxGeometry>
        </mxCell>
        <mxCell id="MJWi9brYNOk2Rg-yx1QD-42" value="fecha_venta TEXT DEFAULT CURRENT_TIMESTAMP" style="shape=partialRectangle;overflow=hidden;connectable=0;fillColor=none;align=left;strokeColor=inherit;top=0;left=0;bottom=0;right=0;spacingLeft=6;" parent="MJWi9brYNOk2Rg-yx1QD-40" vertex="1">
          <mxGeometry x="30" width="350" height="30" as="geometry">
            <mxRectangle width="350" height="30" as="alternateBounds" />
          </mxGeometry>
        </mxCell>
        <mxCell id="MJWi9brYNOk2Rg-yx1QD-43" value="" style="shape=tableRow;horizontal=0;startSize=0;swimlaneHead=0;swimlaneBody=0;fillColor=none;collapsible=0;dropTarget=0;points=[[0,0.5],[1,0.5]];portConstraint=eastwest;strokeColor=inherit;top=0;left=0;right=0;bottom=0;" parent="MJWi9brYNOk2Rg-yx1QD-33" vertex="1">
          <mxGeometry y="120" width="380" height="30" as="geometry" />
        </mxCell>
        <mxCell id="MJWi9brYNOk2Rg-yx1QD-44" value="" style="shape=partialRectangle;overflow=hidden;connectable=0;fillColor=none;strokeColor=inherit;top=0;left=0;bottom=0;right=0;" parent="MJWi9brYNOk2Rg-yx1QD-43" vertex="1">
          <mxGeometry width="30" height="30" as="geometry">
            <mxRectangle width="30" height="30" as="alternateBounds" />
          </mxGeometry>
        </mxCell>
        <mxCell id="MJWi9brYNOk2Rg-yx1QD-45" value="total REAL" style="shape=partialRectangle;overflow=hidden;connectable=0;fillColor=none;align=left;strokeColor=inherit;top=0;left=0;bottom=0;right=0;spacingLeft=6;" parent="MJWi9brYNOk2Rg-yx1QD-43" vertex="1">
          <mxGeometry x="30" width="350" height="30" as="geometry">
            <mxRectangle width="350" height="30" as="alternateBounds" />
          </mxGeometry>
        </mxCell>
        <mxCell id="MJWi9brYNOk2Rg-yx1QD-46" value="" style="shape=tableRow;horizontal=0;startSize=0;swimlaneHead=0;swimlaneBody=0;fillColor=none;collapsible=0;dropTarget=0;points=[[0,0.5],[1,0.5]];portConstraint=eastwest;strokeColor=inherit;top=0;left=0;right=0;bottom=0;" parent="MJWi9brYNOk2Rg-yx1QD-33" vertex="1">
          <mxGeometry y="150" width="380" height="30" as="geometry" />
        </mxCell>
        <mxCell id="MJWi9brYNOk2Rg-yx1QD-47" value="" style="shape=partialRectangle;overflow=hidden;connectable=0;fillColor=none;strokeColor=inherit;top=0;left=0;bottom=0;right=0;" parent="MJWi9brYNOk2Rg-yx1QD-46" vertex="1">
          <mxGeometry width="30" height="30" as="geometry">
            <mxRectangle width="30" height="30" as="alternateBounds" />
          </mxGeometry>
        </mxCell>
        <mxCell id="MJWi9brYNOk2Rg-yx1QD-48" value="FOREIGN KEY (id_cliente) REFERENCES clientes(id_cliente)" style="shape=partialRectangle;overflow=hidden;connectable=0;fillColor=none;align=left;strokeColor=inherit;top=0;left=0;bottom=0;right=0;spacingLeft=6;" parent="MJWi9brYNOk2Rg-yx1QD-46" vertex="1">
          <mxGeometry x="30" width="350" height="30" as="geometry">
            <mxRectangle width="350" height="30" as="alternateBounds" />
          </mxGeometry>
        </mxCell>
        <mxCell id="MJWi9brYNOk2Rg-yx1QD-49" value="facturacion" style="shape=table;startSize=30;container=1;collapsible=1;childLayout=tableLayout;fixedRows=1;rowLines=0;fontStyle=1;align=center;resizeLast=1;fillColor=#dae8fc;strokeColor=#6c8ebf;" parent="1" vertex="1">
          <mxGeometry x="210" y="-434" width="320" height="210" as="geometry" />
        </mxCell>
        <mxCell id="MJWi9brYNOk2Rg-yx1QD-50" value="" style="shape=tableRow;horizontal=0;startSize=0;swimlaneHead=0;swimlaneBody=0;fillColor=none;collapsible=0;dropTarget=0;points=[[0,0.5],[1,0.5]];portConstraint=eastwest;strokeColor=inherit;top=0;left=0;right=0;bottom=1;" parent="MJWi9brYNOk2Rg-yx1QD-49" vertex="1">
          <mxGeometry y="30" width="320" height="30" as="geometry" />
        </mxCell>
        <mxCell id="MJWi9brYNOk2Rg-yx1QD-51" value="PK" style="shape=partialRectangle;overflow=hidden;connectable=0;fillColor=none;strokeColor=inherit;top=0;left=0;bottom=0;right=0;fontStyle=1;" parent="MJWi9brYNOk2Rg-yx1QD-50" vertex="1">
          <mxGeometry width="30" height="30" as="geometry">
            <mxRectangle width="30" height="30" as="alternateBounds" />
          </mxGeometry>
        </mxCell>
        <mxCell id="MJWi9brYNOk2Rg-yx1QD-52" value="id_factura INTEGER  AUTOINCREMENT" style="shape=partialRectangle;overflow=hidden;connectable=0;fillColor=none;align=left;strokeColor=inherit;top=0;left=0;bottom=0;right=0;spacingLeft=6;fontStyle=5;" parent="MJWi9brYNOk2Rg-yx1QD-50" vertex="1">
          <mxGeometry x="30" width="290" height="30" as="geometry">
            <mxRectangle width="290" height="30" as="alternateBounds" />
          </mxGeometry>
        </mxCell>
        <mxCell id="MJWi9brYNOk2Rg-yx1QD-53" value="" style="shape=tableRow;horizontal=0;startSize=0;swimlaneHead=0;swimlaneBody=0;fillColor=none;collapsible=0;dropTarget=0;points=[[0,0.5],[1,0.5]];portConstraint=eastwest;strokeColor=inherit;top=0;left=0;right=0;bottom=0;" parent="MJWi9brYNOk2Rg-yx1QD-49" vertex="1">
          <mxGeometry y="60" width="320" height="30" as="geometry" />
        </mxCell>
        <mxCell id="MJWi9brYNOk2Rg-yx1QD-54" value="" style="shape=partialRectangle;overflow=hidden;connectable=0;fillColor=none;strokeColor=inherit;top=0;left=0;bottom=0;right=0;" parent="MJWi9brYNOk2Rg-yx1QD-53" vertex="1">
          <mxGeometry width="30" height="30" as="geometry">
            <mxRectangle width="30" height="30" as="alternateBounds" />
          </mxGeometry>
        </mxCell>
        <mxCell id="MJWi9brYNOk2Rg-yx1QD-55" value="id_venta INTEGER" style="shape=partialRectangle;overflow=hidden;connectable=0;fillColor=none;align=left;strokeColor=inherit;top=0;left=0;bottom=0;right=0;spacingLeft=6;" parent="MJWi9brYNOk2Rg-yx1QD-53" vertex="1">
          <mxGeometry x="30" width="290" height="30" as="geometry">
            <mxRectangle width="290" height="30" as="alternateBounds" />
          </mxGeometry>
        </mxCell>
        <mxCell id="MJWi9brYNOk2Rg-yx1QD-56" value="" style="shape=tableRow;horizontal=0;startSize=0;swimlaneHead=0;swimlaneBody=0;fillColor=none;collapsible=0;dropTarget=0;points=[[0,0.5],[1,0.5]];portConstraint=eastwest;strokeColor=inherit;top=0;left=0;right=0;bottom=0;" parent="MJWi9brYNOk2Rg-yx1QD-49" vertex="1">
          <mxGeometry y="90" width="320" height="30" as="geometry" />
        </mxCell>
        <mxCell id="MJWi9brYNOk2Rg-yx1QD-57" value="" style="shape=partialRectangle;overflow=hidden;connectable=0;fillColor=none;strokeColor=inherit;top=0;left=0;bottom=0;right=0;" parent="MJWi9brYNOk2Rg-yx1QD-56" vertex="1">
          <mxGeometry width="30" height="30" as="geometry">
            <mxRectangle width="30" height="30" as="alternateBounds" />
          </mxGeometry>
        </mxCell>
        <mxCell id="MJWi9brYNOk2Rg-yx1QD-58" value="fecha_factura TEXT DEFAULT CURRENT_TIMESTAMP" style="shape=partialRectangle;overflow=hidden;connectable=0;fillColor=none;align=left;strokeColor=inherit;top=0;left=0;bottom=0;right=0;spacingLeft=6;" parent="MJWi9brYNOk2Rg-yx1QD-56" vertex="1">
          <mxGeometry x="30" width="290" height="30" as="geometry">
            <mxRectangle width="290" height="30" as="alternateBounds" />
          </mxGeometry>
        </mxCell>
        <mxCell id="MJWi9brYNOk2Rg-yx1QD-59" value="" style="shape=tableRow;horizontal=0;startSize=0;swimlaneHead=0;swimlaneBody=0;fillColor=none;collapsible=0;dropTarget=0;points=[[0,0.5],[1,0.5]];portConstraint=eastwest;strokeColor=inherit;top=0;left=0;right=0;bottom=0;" parent="MJWi9brYNOk2Rg-yx1QD-49" vertex="1">
          <mxGeometry y="120" width="320" height="30" as="geometry" />
        </mxCell>
        <mxCell id="MJWi9brYNOk2Rg-yx1QD-60" value="" style="shape=partialRectangle;overflow=hidden;connectable=0;fillColor=none;strokeColor=inherit;top=0;left=0;bottom=0;right=0;" parent="MJWi9brYNOk2Rg-yx1QD-59" vertex="1">
          <mxGeometry width="30" height="30" as="geometry">
            <mxRectangle width="30" height="30" as="alternateBounds" />
          </mxGeometry>
        </mxCell>
        <mxCell id="MJWi9brYNOk2Rg-yx1QD-61" value="metodo_pago TEXT" style="shape=partialRectangle;overflow=hidden;connectable=0;fillColor=none;align=left;strokeColor=inherit;top=0;left=0;bottom=0;right=0;spacingLeft=6;" parent="MJWi9brYNOk2Rg-yx1QD-59" vertex="1">
          <mxGeometry x="30" width="290" height="30" as="geometry">
            <mxRectangle width="290" height="30" as="alternateBounds" />
          </mxGeometry>
        </mxCell>
        <mxCell id="MJWi9brYNOk2Rg-yx1QD-62" value="" style="shape=tableRow;horizontal=0;startSize=0;swimlaneHead=0;swimlaneBody=0;fillColor=none;collapsible=0;dropTarget=0;points=[[0,0.5],[1,0.5]];portConstraint=eastwest;strokeColor=inherit;top=0;left=0;right=0;bottom=0;" parent="MJWi9brYNOk2Rg-yx1QD-49" vertex="1">
          <mxGeometry y="150" width="320" height="30" as="geometry" />
        </mxCell>
        <mxCell id="MJWi9brYNOk2Rg-yx1QD-63" value="" style="shape=partialRectangle;overflow=hidden;connectable=0;fillColor=none;strokeColor=inherit;top=0;left=0;bottom=0;right=0;" parent="MJWi9brYNOk2Rg-yx1QD-62" vertex="1">
          <mxGeometry width="30" height="30" as="geometry">
            <mxRectangle width="30" height="30" as="alternateBounds" />
          </mxGeometry>
        </mxCell>
        <mxCell id="MJWi9brYNOk2Rg-yx1QD-64" value="estado_factura TEXT DEFAULT &#39;Pendiente&#39;" style="shape=partialRectangle;overflow=hidden;connectable=0;fillColor=none;align=left;strokeColor=inherit;top=0;left=0;bottom=0;right=0;spacingLeft=6;" parent="MJWi9brYNOk2Rg-yx1QD-62" vertex="1">
          <mxGeometry x="30" width="290" height="30" as="geometry">
            <mxRectangle width="290" height="30" as="alternateBounds" />
          </mxGeometry>
        </mxCell>
        <mxCell id="MJWi9brYNOk2Rg-yx1QD-65" value="" style="shape=tableRow;horizontal=0;startSize=0;swimlaneHead=0;swimlaneBody=0;fillColor=none;collapsible=0;dropTarget=0;points=[[0,0.5],[1,0.5]];portConstraint=eastwest;strokeColor=inherit;top=0;left=0;right=0;bottom=0;" parent="MJWi9brYNOk2Rg-yx1QD-49" vertex="1">
          <mxGeometry y="180" width="320" height="30" as="geometry" />
        </mxCell>
        <mxCell id="MJWi9brYNOk2Rg-yx1QD-66" value="" style="shape=partialRectangle;overflow=hidden;connectable=0;fillColor=none;strokeColor=inherit;top=0;left=0;bottom=0;right=0;" parent="MJWi9brYNOk2Rg-yx1QD-65" vertex="1">
          <mxGeometry width="30" height="30" as="geometry">
            <mxRectangle width="30" height="30" as="alternateBounds" />
          </mxGeometry>
        </mxCell>
        <mxCell id="MJWi9brYNOk2Rg-yx1QD-67" value="FOREIGN KEY (id_venta) REFERENCES ventas(id_venta)" style="shape=partialRectangle;overflow=hidden;connectable=0;fillColor=none;align=left;strokeColor=inherit;top=0;left=0;bottom=0;right=0;spacingLeft=6;" parent="MJWi9brYNOk2Rg-yx1QD-65" vertex="1">
          <mxGeometry x="30" width="290" height="30" as="geometry">
            <mxRectangle width="290" height="30" as="alternateBounds" />
          </mxGeometry>
        </mxCell>
        <mxCell id="MJWi9brYNOk2Rg-yx1QD-68" value="detalle_venta" style="shape=table;startSize=30;container=1;collapsible=1;childLayout=tableLayout;fixedRows=1;rowLines=0;fontStyle=1;align=center;resizeLast=1;fillColor=#dae8fc;strokeColor=#6c8ebf;" parent="1" vertex="1">
          <mxGeometry x="161" y="-896" width="320" height="270" as="geometry" />
        </mxCell>
        <mxCell id="MJWi9brYNOk2Rg-yx1QD-69" value="" style="shape=tableRow;horizontal=0;startSize=0;swimlaneHead=0;swimlaneBody=0;fillColor=none;collapsible=0;dropTarget=0;points=[[0,0.5],[1,0.5]];portConstraint=eastwest;strokeColor=inherit;top=0;left=0;right=0;bottom=1;" parent="MJWi9brYNOk2Rg-yx1QD-68" vertex="1">
          <mxGeometry y="30" width="320" height="30" as="geometry" />
        </mxCell>
        <mxCell id="MJWi9brYNOk2Rg-yx1QD-70" value="PK" style="shape=partialRectangle;overflow=hidden;connectable=0;fillColor=none;strokeColor=inherit;top=0;left=0;bottom=0;right=0;fontStyle=1;" parent="MJWi9brYNOk2Rg-yx1QD-69" vertex="1">
          <mxGeometry width="30" height="30" as="geometry">
            <mxRectangle width="30" height="30" as="alternateBounds" />
          </mxGeometry>
        </mxCell>
        <mxCell id="MJWi9brYNOk2Rg-yx1QD-71" value="id_detalle INTEGER  AUTOINCREMENT" style="shape=partialRectangle;overflow=hidden;connectable=0;fillColor=none;align=left;strokeColor=inherit;top=0;left=0;bottom=0;right=0;spacingLeft=6;fontStyle=5;" parent="MJWi9brYNOk2Rg-yx1QD-69" vertex="1">
          <mxGeometry x="30" width="290" height="30" as="geometry">
            <mxRectangle width="290" height="30" as="alternateBounds" />
          </mxGeometry>
        </mxCell>
        <mxCell id="MJWi9brYNOk2Rg-yx1QD-72" value="" style="shape=tableRow;horizontal=0;startSize=0;swimlaneHead=0;swimlaneBody=0;fillColor=none;collapsible=0;dropTarget=0;points=[[0,0.5],[1,0.5]];portConstraint=eastwest;strokeColor=inherit;top=0;left=0;right=0;bottom=0;" parent="MJWi9brYNOk2Rg-yx1QD-68" vertex="1">
          <mxGeometry y="60" width="320" height="30" as="geometry" />
        </mxCell>
        <mxCell id="MJWi9brYNOk2Rg-yx1QD-73" value="" style="shape=partialRectangle;overflow=hidden;connectable=0;fillColor=none;strokeColor=inherit;top=0;left=0;bottom=0;right=0;" parent="MJWi9brYNOk2Rg-yx1QD-72" vertex="1">
          <mxGeometry width="30" height="30" as="geometry">
            <mxRectangle width="30" height="30" as="alternateBounds" />
          </mxGeometry>
        </mxCell>
        <mxCell id="MJWi9brYNOk2Rg-yx1QD-74" value="id_venta INTEGER" style="shape=partialRectangle;overflow=hidden;connectable=0;fillColor=none;align=left;strokeColor=inherit;top=0;left=0;bottom=0;right=0;spacingLeft=6;" parent="MJWi9brYNOk2Rg-yx1QD-72" vertex="1">
          <mxGeometry x="30" width="290" height="30" as="geometry">
            <mxRectangle width="290" height="30" as="alternateBounds" />
          </mxGeometry>
        </mxCell>
        <mxCell id="MJWi9brYNOk2Rg-yx1QD-75" value="" style="shape=tableRow;horizontal=0;startSize=0;swimlaneHead=0;swimlaneBody=0;fillColor=none;collapsible=0;dropTarget=0;points=[[0,0.5],[1,0.5]];portConstraint=eastwest;strokeColor=inherit;top=0;left=0;right=0;bottom=0;" parent="MJWi9brYNOk2Rg-yx1QD-68" vertex="1">
          <mxGeometry y="90" width="320" height="30" as="geometry" />
        </mxCell>
        <mxCell id="MJWi9brYNOk2Rg-yx1QD-76" value="" style="shape=partialRectangle;overflow=hidden;connectable=0;fillColor=none;strokeColor=inherit;top=0;left=0;bottom=0;right=0;" parent="MJWi9brYNOk2Rg-yx1QD-75" vertex="1">
          <mxGeometry width="30" height="30" as="geometry">
            <mxRectangle width="30" height="30" as="alternateBounds" />
          </mxGeometry>
        </mxCell>
        <mxCell id="MJWi9brYNOk2Rg-yx1QD-77" value="id_producto INTEGER" style="shape=partialRectangle;overflow=hidden;connectable=0;fillColor=none;align=left;strokeColor=inherit;top=0;left=0;bottom=0;right=0;spacingLeft=6;" parent="MJWi9brYNOk2Rg-yx1QD-75" vertex="1">
          <mxGeometry x="30" width="290" height="30" as="geometry">
            <mxRectangle width="290" height="30" as="alternateBounds" />
          </mxGeometry>
        </mxCell>
        <mxCell id="MJWi9brYNOk2Rg-yx1QD-78" value="" style="shape=tableRow;horizontal=0;startSize=0;swimlaneHead=0;swimlaneBody=0;fillColor=none;collapsible=0;dropTarget=0;points=[[0,0.5],[1,0.5]];portConstraint=eastwest;strokeColor=inherit;top=0;left=0;right=0;bottom=0;" parent="MJWi9brYNOk2Rg-yx1QD-68" vertex="1">
          <mxGeometry y="120" width="320" height="30" as="geometry" />
        </mxCell>
        <mxCell id="MJWi9brYNOk2Rg-yx1QD-79" value="" style="shape=partialRectangle;overflow=hidden;connectable=0;fillColor=none;strokeColor=inherit;top=0;left=0;bottom=0;right=0;" parent="MJWi9brYNOk2Rg-yx1QD-78" vertex="1">
          <mxGeometry width="30" height="30" as="geometry">
            <mxRectangle width="30" height="30" as="alternateBounds" />
          </mxGeometry>
        </mxCell>
        <mxCell id="MJWi9brYNOk2Rg-yx1QD-80" value="cantidad INTEGER NOT NULL" style="shape=partialRectangle;overflow=hidden;connectable=0;fillColor=none;align=left;strokeColor=inherit;top=0;left=0;bottom=0;right=0;spacingLeft=6;" parent="MJWi9brYNOk2Rg-yx1QD-78" vertex="1">
          <mxGeometry x="30" width="290" height="30" as="geometry">
            <mxRectangle width="290" height="30" as="alternateBounds" />
          </mxGeometry>
        </mxCell>
        <mxCell id="MJWi9brYNOk2Rg-yx1QD-81" value="" style="shape=tableRow;horizontal=0;startSize=0;swimlaneHead=0;swimlaneBody=0;fillColor=none;collapsible=0;dropTarget=0;points=[[0,0.5],[1,0.5]];portConstraint=eastwest;strokeColor=inherit;top=0;left=0;right=0;bottom=0;" parent="MJWi9brYNOk2Rg-yx1QD-68" vertex="1">
          <mxGeometry y="150" width="320" height="30" as="geometry" />
        </mxCell>
        <mxCell id="MJWi9brYNOk2Rg-yx1QD-82" value="" style="shape=partialRectangle;overflow=hidden;connectable=0;fillColor=none;strokeColor=inherit;top=0;left=0;bottom=0;right=0;" parent="MJWi9brYNOk2Rg-yx1QD-81" vertex="1">
          <mxGeometry width="30" height="30" as="geometry">
            <mxRectangle width="30" height="30" as="alternateBounds" />
          </mxGeometry>
        </mxCell>
        <mxCell id="MJWi9brYNOk2Rg-yx1QD-83" value="precio_unitario REAL NOT NULL" style="shape=partialRectangle;overflow=hidden;connectable=0;fillColor=none;align=left;strokeColor=inherit;top=0;left=0;bottom=0;right=0;spacingLeft=6;" parent="MJWi9brYNOk2Rg-yx1QD-81" vertex="1">
          <mxGeometry x="30" width="290" height="30" as="geometry">
            <mxRectangle width="290" height="30" as="alternateBounds" />
          </mxGeometry>
        </mxCell>
        <mxCell id="MJWi9brYNOk2Rg-yx1QD-84" value="" style="shape=tableRow;horizontal=0;startSize=0;swimlaneHead=0;swimlaneBody=0;fillColor=none;collapsible=0;dropTarget=0;points=[[0,0.5],[1,0.5]];portConstraint=eastwest;strokeColor=inherit;top=0;left=0;right=0;bottom=0;" parent="MJWi9brYNOk2Rg-yx1QD-68" vertex="1">
          <mxGeometry y="180" width="320" height="30" as="geometry" />
        </mxCell>
        <mxCell id="MJWi9brYNOk2Rg-yx1QD-85" value="" style="shape=partialRectangle;overflow=hidden;connectable=0;fillColor=none;strokeColor=inherit;top=0;left=0;bottom=0;right=0;" parent="MJWi9brYNOk2Rg-yx1QD-84" vertex="1">
          <mxGeometry width="30" height="30" as="geometry">
            <mxRectangle width="30" height="30" as="alternateBounds" />
          </mxGeometry>
        </mxCell>
        <mxCell id="MJWi9brYNOk2Rg-yx1QD-86" value="subtotal REAL" style="shape=partialRectangle;overflow=hidden;connectable=0;fillColor=none;align=left;strokeColor=inherit;top=0;left=0;bottom=0;right=0;spacingLeft=6;" parent="MJWi9brYNOk2Rg-yx1QD-84" vertex="1">
          <mxGeometry x="30" width="290" height="30" as="geometry">
            <mxRectangle width="290" height="30" as="alternateBounds" />
          </mxGeometry>
        </mxCell>
        <mxCell id="MJWi9brYNOk2Rg-yx1QD-87" value="" style="shape=tableRow;horizontal=0;startSize=0;swimlaneHead=0;swimlaneBody=0;fillColor=none;collapsible=0;dropTarget=0;points=[[0,0.5],[1,0.5]];portConstraint=eastwest;strokeColor=inherit;top=0;left=0;right=0;bottom=0;" parent="MJWi9brYNOk2Rg-yx1QD-68" vertex="1">
          <mxGeometry y="210" width="320" height="30" as="geometry" />
        </mxCell>
        <mxCell id="MJWi9brYNOk2Rg-yx1QD-88" value="" style="shape=partialRectangle;overflow=hidden;connectable=0;fillColor=none;strokeColor=inherit;top=0;left=0;bottom=0;right=0;" parent="MJWi9brYNOk2Rg-yx1QD-87" vertex="1">
          <mxGeometry width="30" height="30" as="geometry">
            <mxRectangle width="30" height="30" as="alternateBounds" />
          </mxGeometry>
        </mxCell>
        <mxCell id="MJWi9brYNOk2Rg-yx1QD-89" value="FOREIGN KEY (id_venta) REFERENCES ventas(id_venta)" style="shape=partialRectangle;overflow=hidden;connectable=0;fillColor=none;align=left;strokeColor=inherit;top=0;left=0;bottom=0;right=0;spacingLeft=6;" parent="MJWi9brYNOk2Rg-yx1QD-87" vertex="1">
          <mxGeometry x="30" width="290" height="30" as="geometry">
            <mxRectangle width="290" height="30" as="alternateBounds" />
          </mxGeometry>
        </mxCell>
        <mxCell id="MJWi9brYNOk2Rg-yx1QD-90" value="" style="shape=tableRow;horizontal=0;startSize=0;swimlaneHead=0;swimlaneBody=0;fillColor=none;collapsible=0;dropTarget=0;points=[[0,0.5],[1,0.5]];portConstraint=eastwest;strokeColor=inherit;top=0;left=0;right=0;bottom=0;" parent="MJWi9brYNOk2Rg-yx1QD-68" vertex="1">
          <mxGeometry y="240" width="320" height="30" as="geometry" />
        </mxCell>
        <mxCell id="MJWi9brYNOk2Rg-yx1QD-91" value="" style="shape=partialRectangle;overflow=hidden;connectable=0;fillColor=none;strokeColor=inherit;top=0;left=0;bottom=0;right=0;" parent="MJWi9brYNOk2Rg-yx1QD-90" vertex="1">
          <mxGeometry width="30" height="30" as="geometry">
            <mxRectangle width="30" height="30" as="alternateBounds" />
          </mxGeometry>
        </mxCell>
        <mxCell id="MJWi9brYNOk2Rg-yx1QD-92" value="FOREIGN KEY (id_producto) REFERENCES productos(id_producto)" style="shape=partialRectangle;overflow=hidden;connectable=0;fillColor=none;align=left;strokeColor=inherit;top=0;left=0;bottom=0;right=0;spacingLeft=6;" parent="MJWi9brYNOk2Rg-yx1QD-90" vertex="1">
          <mxGeometry x="30" width="290" height="30" as="geometry">
            <mxRectangle width="290" height="30" as="alternateBounds" />
          </mxGeometry>
        </mxCell>
        <mxCell id="MJWi9brYNOk2Rg-yx1QD-104" style="edgeStyle=orthogonalEdgeStyle;rounded=0;orthogonalLoop=1;jettySize=auto;html=1;entryX=0;entryY=0.5;entryDx=0;entryDy=0;exitX=1;exitY=0.5;exitDx=0;exitDy=0;" parent="1" source="MJWi9brYNOk2Rg-yx1QD-69" target="MJWi9brYNOk2Rg-yx1QD-34" edge="1">
          <mxGeometry relative="1" as="geometry" />
        </mxCell>
        <mxCell id="MJWi9brYNOk2Rg-yx1QD-107" style="edgeStyle=orthogonalEdgeStyle;rounded=0;orthogonalLoop=1;jettySize=auto;html=1;" parent="1" source="MJWi9brYNOk2Rg-yx1QD-53" target="MJWi9brYNOk2Rg-yx1QD-34" edge="1">
          <mxGeometry relative="1" as="geometry" />
        </mxCell>
        <mxCell id="MJWi9brYNOk2Rg-yx1QD-108" style="edgeStyle=orthogonalEdgeStyle;rounded=0;orthogonalLoop=1;jettySize=auto;html=1;" parent="1" source="MJWi9brYNOk2Rg-yx1QD-2" target="MJWi9brYNOk2Rg-yx1QD-46" edge="1">
          <mxGeometry relative="1" as="geometry" />
        </mxCell>
        <mxCell id="MJWi9brYNOk2Rg-yx1QD-109" value="Text" style="text;html=1;align=center;verticalAlign=middle;whiteSpace=wrap;rounded=0;" parent="1" vertex="1">
          <mxGeometry x="1120" y="-780" width="60" height="30" as="geometry" />
        </mxCell>
        <mxCell id="MJWi9brYNOk2Rg-yx1QD-111" value="&lt;p class=&quot;MsoNormal&quot;&gt;&lt;font style=&quot;font-size: 36px;&quot;&gt;&lt;b&gt;Diagrama de Entidad de relaciÃ³n con atributo&amp;nbsp;&lt;/b&gt;&lt;/font&gt;&lt;/p&gt;" style="text;html=1;align=center;verticalAlign=middle;whiteSpace=wrap;rounded=0;" parent="1" vertex="1">
          <mxGeometry x="160" y="-1050" width="1240" height="90" as="geometry" />
        </mxCell>
        <mxCell id="MJWi9brYNOk2Rg-yx1QD-117" style="edgeStyle=orthogonalEdgeStyle;rounded=0;orthogonalLoop=1;jettySize=auto;html=1;entryX=0;entryY=0.5;entryDx=0;entryDy=0;" parent="1" source="MJWi9brYNOk2Rg-yx1QD-115" edge="1">
          <mxGeometry relative="1" as="geometry">
            <mxPoint x="460" y="-2010" as="targetPoint" />
          </mxGeometry>
        </mxCell>
        <mxCell id="MJWi9brYNOk2Rg-yx1QD-115" value="GENERA" style="rhombus;whiteSpace=wrap;html=1;" parent="1" vertex="1">
          <mxGeometry x="320" y="-2050" width="80" height="80" as="geometry" />
        </mxCell>
        <mxCell id="qxUChrG7EULnIq1A-d3o-17" value="" style="edgeStyle=orthogonalEdgeStyle;rounded=0;orthogonalLoop=1;jettySize=auto;html=1;" edge="1" parent="1" source="MJWi9brYNOk2Rg-yx1QD-118" target="MJWi9brYNOk2Rg-yx1QD-142">
          <mxGeometry relative="1" as="geometry" />
        </mxCell>
        <mxCell id="qxUChrG7EULnIq1A-d3o-28" value="" style="edgeStyle=orthogonalEdgeStyle;rounded=0;orthogonalLoop=1;jettySize=auto;html=1;" edge="1" parent="1" source="MJWi9brYNOk2Rg-yx1QD-118" target="qxUChrG7EULnIq1A-d3o-23">
          <mxGeometry relative="1" as="geometry" />
        </mxCell>
        <mxCell id="MJWi9brYNOk2Rg-yx1QD-118" value="CONTIENE" style="rhombus;whiteSpace=wrap;html=1;" parent="1" vertex="1">
          <mxGeometry x="1040" y="-1920" width="80" height="80" as="geometry" />
        </mxCell>
        <mxCell id="qxUChrG7EULnIq1A-d3o-26" value="" style="edgeStyle=orthogonalEdgeStyle;rounded=0;orthogonalLoop=1;jettySize=auto;html=1;" edge="1" parent="1" source="MJWi9brYNOk2Rg-yx1QD-132" target="qxUChrG7EULnIq1A-d3o-24">
          <mxGeometry relative="1" as="geometry" />
        </mxCell>
        <mxCell id="MJWi9brYNOk2Rg-yx1QD-132" value="&lt;p style=&quot;mso-margin-top-alt:auto;mso-margin-bottom-alt:auto;&lt;br/&gt;line-height:normal&quot; class=&quot;MsoNormal&quot;&gt;&lt;span style=&quot;font-size: 9pt; font-family: Helvetica, sans-serif; background-image: initial; background-position: initial; background-size: initial; background-repeat: initial; background-attachment: initial; background-origin: initial; background-clip: initial;&quot;&gt;INCLUYE&lt;/span&gt;&lt;b&gt;&lt;span style=&quot;font-size:12.0pt;&lt;br/&gt;font-family:&amp;quot;Times New Roman&amp;quot;,serif;mso-fareast-font-family:&amp;quot;Times New Roman&amp;quot;;&lt;br/&gt;mso-fareast-language:ES-PA&quot;&gt;&lt;/span&gt;&lt;/b&gt;&lt;/p&gt;" style="rhombus;whiteSpace=wrap;html=1;" parent="1" vertex="1">
          <mxGeometry x="1160" y="-2050" width="100" height="80" as="geometry" />
        </mxCell>
        <mxCell id="MJWi9brYNOk2Rg-yx1QD-137" style="edgeStyle=orthogonalEdgeStyle;rounded=0;orthogonalLoop=1;jettySize=auto;html=1;" parent="1" source="MJWi9brYNOk2Rg-yx1QD-136" target="MJWi9brYNOk2Rg-yx1QD-115" edge="1">
          <mxGeometry relative="1" as="geometry" />
        </mxCell>
        <mxCell id="MJWi9brYNOk2Rg-yx1QD-136" value="&lt;font style=&quot;font-size: 18px;&quot;&gt;CLIENTES&lt;/font&gt;" style="rounded=0;whiteSpace=wrap;html=1;" parent="1" vertex="1">
          <mxGeometry x="40" y="-2060" width="220" height="100" as="geometry" />
        </mxCell>
        <mxCell id="MJWi9brYNOk2Rg-yx1QD-142" value="&lt;font style=&quot;font-size: 18px;&quot;&gt;DETALLES DE VENTAS&lt;/font&gt;" style="rounded=0;whiteSpace=wrap;html=1;" parent="1" vertex="1">
          <mxGeometry x="1180" y="-1930" width="220" height="100" as="geometry" />
        </mxCell>
        <mxCell id="qxUChrG7EULnIq1A-d3o-20" value="" style="edgeStyle=orthogonalEdgeStyle;rounded=0;orthogonalLoop=1;jettySize=auto;html=1;" edge="1" parent="1" target="qxUChrG7EULnIq1A-d3o-19">
          <mxGeometry relative="1" as="geometry">
            <mxPoint x="680" y="-2010" as="sourcePoint" />
          </mxGeometry>
        </mxCell>
        <mxCell id="qxUChrG7EULnIq1A-d3o-61" style="edgeStyle=orthogonalEdgeStyle;rounded=0;orthogonalLoop=1;jettySize=auto;html=1;" edge="1" parent="1" source="MJWi9brYNOk2Rg-yx1QD-145" target="qxUChrG7EULnIq1A-d3o-60">
          <mxGeometry relative="1" as="geometry" />
        </mxCell>
        <mxCell id="MJWi9brYNOk2Rg-yx1QD-145" value="&lt;font style=&quot;font-size: 18px;&quot;&gt;INVENTARIO&lt;/font&gt;" style="rounded=0;whiteSpace=wrap;html=1;" parent="1" vertex="1">
          <mxGeometry x="62.5" y="-1389" width="170" height="100" as="geometry" />
        </mxCell>
        <mxCell id="qxUChrG7EULnIq1A-d3o-54" value="" style="edgeStyle=orthogonalEdgeStyle;rounded=0;orthogonalLoop=1;jettySize=auto;html=1;endArrow=none;endFill=0;" edge="1" parent="1" source="qxUChrG7EULnIq1A-d3o-1">
          <mxGeometry relative="1" as="geometry">
            <mxPoint x="795" y="-1800" as="targetPoint" />
          </mxGeometry>
        </mxCell>
        <mxCell id="qxUChrG7EULnIq1A-d3o-1" value="&lt;font style=&quot;font-size: 18px;&quot;&gt;&lt;b&gt;SISTEMA DE INFORMACION VEENTAS Y FACTURACION DE LA EMPRESA&amp;nbsp;&lt;/b&gt;&lt;/font&gt;" style="ellipse;whiteSpace=wrap;html=1;align=center;" vertex="1" parent="1">
          <mxGeometry x="560" y="-1740" width="470" height="230" as="geometry" />
        </mxCell>
        <mxCell id="qxUChrG7EULnIq1A-d3o-5" value="" style="endArrow=none;html=1;rounded=0;" edge="1" parent="1">
          <mxGeometry width="50" height="50" relative="1" as="geometry">
            <mxPoint x="150" y="-1800" as="sourcePoint" />
            <mxPoint x="1440" y="-1800" as="targetPoint" />
          </mxGeometry>
        </mxCell>
        <mxCell id="qxUChrG7EULnIq1A-d3o-9" value="" style="endArrow=classic;html=1;rounded=0;entryX=0.5;entryY=1;entryDx=0;entryDy=0;" edge="1" parent="1" target="MJWi9brYNOk2Rg-yx1QD-136">
          <mxGeometry width="50" height="50" relative="1" as="geometry">
            <mxPoint x="150" y="-1800" as="sourcePoint" />
            <mxPoint x="150" y="-1800" as="targetPoint" />
          </mxGeometry>
        </mxCell>
        <mxCell id="qxUChrG7EULnIq1A-d3o-11" value="" style="endArrow=classic;html=1;rounded=0;entryX=0.448;entryY=1;entryDx=0;entryDy=0;entryPerimeter=0;" edge="1" parent="1">
          <mxGeometry width="50" height="50" relative="1" as="geometry">
            <mxPoint x="559" y="-1800" as="sourcePoint" />
            <mxPoint x="558.56" y="-1960" as="targetPoint" />
          </mxGeometry>
        </mxCell>
        <mxCell id="qxUChrG7EULnIq1A-d3o-13" value="" style="endArrow=classic;html=1;rounded=0;entryX=0.546;entryY=1.009;entryDx=0;entryDy=0;entryPerimeter=0;" edge="1" parent="1">
          <mxGeometry width="50" height="50" relative="1" as="geometry">
            <mxPoint x="1440" y="-1800" as="sourcePoint" />
            <mxPoint x="1440.12" y="-1960" as="targetPoint" />
          </mxGeometry>
        </mxCell>
        <mxCell id="qxUChrG7EULnIq1A-d3o-21" style="edgeStyle=orthogonalEdgeStyle;rounded=0;orthogonalLoop=1;jettySize=auto;html=1;entryX=0;entryY=0.5;entryDx=0;entryDy=0;" edge="1" parent="1" source="qxUChrG7EULnIq1A-d3o-19">
          <mxGeometry relative="1" as="geometry">
            <mxPoint x="880" y="-2010" as="targetPoint" />
          </mxGeometry>
        </mxCell>
        <mxCell id="qxUChrG7EULnIq1A-d3o-19" value="CONTIENE" style="rhombus;whiteSpace=wrap;html=1;" vertex="1" parent="1">
          <mxGeometry x="740" y="-2050" width="80" height="80" as="geometry" />
        </mxCell>
        <mxCell id="qxUChrG7EULnIq1A-d3o-22" value="&lt;font style=&quot;font-size: 18px;&quot;&gt;FACTURACION&lt;/font&gt;" style="rounded=0;whiteSpace=wrap;html=1;" vertex="1" parent="1">
          <mxGeometry x="460" y="-2060" width="220" height="100" as="geometry" />
        </mxCell>
        <mxCell id="qxUChrG7EULnIq1A-d3o-25" value="" style="edgeStyle=orthogonalEdgeStyle;rounded=0;orthogonalLoop=1;jettySize=auto;html=1;" edge="1" parent="1" source="qxUChrG7EULnIq1A-d3o-23" target="MJWi9brYNOk2Rg-yx1QD-132">
          <mxGeometry relative="1" as="geometry" />
        </mxCell>
        <mxCell id="qxUChrG7EULnIq1A-d3o-23" value="&lt;font style=&quot;font-size: 18px;&quot;&gt;VENTAS&lt;/font&gt;" style="rounded=0;whiteSpace=wrap;html=1;" vertex="1" parent="1">
          <mxGeometry x="880" y="-2060" width="220" height="100" as="geometry" />
        </mxCell>
        <mxCell id="qxUChrG7EULnIq1A-d3o-24" value="&lt;font style=&quot;font-size: 18px;&quot;&gt;PRODUCTOS&lt;/font&gt;" style="rounded=0;whiteSpace=wrap;html=1;" vertex="1" parent="1">
          <mxGeometry x="1320" y="-2060" width="220" height="100" as="geometry" />
        </mxCell>
        <mxCell id="qxUChrG7EULnIq1A-d3o-27" value="" style="endArrow=classic;html=1;rounded=0;entryX=0.546;entryY=1.009;entryDx=0;entryDy=0;entryPerimeter=0;" edge="1" parent="1">
          <mxGeometry width="50" height="50" relative="1" as="geometry">
            <mxPoint x="990" y="-1800" as="sourcePoint" />
            <mxPoint x="989.4999999999999" y="-1960" as="targetPoint" />
          </mxGeometry>
        </mxCell>
        <mxCell id="qxUChrG7EULnIq1A-d3o-29" value="" style="endArrow=none;html=1;rounded=0;" edge="1" parent="1">
          <mxGeometry width="50" height="50" relative="1" as="geometry">
            <mxPoint x="147.5" y="-1457" as="sourcePoint" />
            <mxPoint x="1448.5" y="-1457" as="targetPoint" />
          </mxGeometry>
        </mxCell>
        <mxCell id="qxUChrG7EULnIq1A-d3o-30" value="" style="endArrow=none;html=1;rounded=0;" edge="1" parent="1">
          <mxGeometry width="50" height="50" relative="1" as="geometry">
            <mxPoint x="797.5" y="-1457" as="sourcePoint" />
            <mxPoint x="797.5" y="-1510" as="targetPoint" />
          </mxGeometry>
        </mxCell>
        <mxCell id="qxUChrG7EULnIq1A-d3o-31" value="&lt;p class=&quot;MsoNormal&quot;&gt;&lt;font style=&quot;font-size: 36px;&quot;&gt;&lt;b&gt;Diagrama de Entidad del Modelo&amp;nbsp;&lt;/b&gt;&lt;/font&gt;&lt;/p&gt;" style="text;html=1;align=center;verticalAlign=middle;whiteSpace=wrap;rounded=0;" vertex="1" parent="1">
          <mxGeometry x="160" y="-2180" width="1240" height="90" as="geometry" />
        </mxCell>
        <mxCell id="qxUChrG7EULnIq1A-d3o-47" value="" style="edgeStyle=orthogonalEdgeStyle;rounded=0;orthogonalLoop=1;jettySize=auto;html=1;" edge="1" parent="1" source="qxUChrG7EULnIq1A-d3o-33" target="qxUChrG7EULnIq1A-d3o-45">
          <mxGeometry relative="1" as="geometry" />
        </mxCell>
        <mxCell id="qxUChrG7EULnIq1A-d3o-33" value="&lt;span style=&quot;font-size: 18px;&quot;&gt;PERSONAL&lt;/span&gt;" style="rounded=0;whiteSpace=wrap;html=1;" vertex="1" parent="1">
          <mxGeometry x="307.5" y="-1389" width="170" height="100" as="geometry" />
        </mxCell>
        <mxCell id="qxUChrG7EULnIq1A-d3o-34" value="&lt;font style=&quot;font-size: 18px;&quot;&gt;SUCURSAL&lt;/font&gt;" style="rounded=0;whiteSpace=wrap;html=1;" vertex="1" parent="1">
          <mxGeometry x="1067.5" y="-1389" width="180" height="100" as="geometry" />
        </mxCell>
        <mxCell id="qxUChrG7EULnIq1A-d3o-50" value="" style="edgeStyle=orthogonalEdgeStyle;rounded=0;orthogonalLoop=1;jettySize=auto;html=1;" edge="1" parent="1" source="qxUChrG7EULnIq1A-d3o-35" target="qxUChrG7EULnIq1A-d3o-49">
          <mxGeometry relative="1" as="geometry" />
        </mxCell>
        <mxCell id="qxUChrG7EULnIq1A-d3o-58" value="" style="edgeStyle=orthogonalEdgeStyle;rounded=0;orthogonalLoop=1;jettySize=auto;html=1;" edge="1" parent="1" source="qxUChrG7EULnIq1A-d3o-35" target="qxUChrG7EULnIq1A-d3o-52">
          <mxGeometry relative="1" as="geometry" />
        </mxCell>
        <mxCell id="qxUChrG7EULnIq1A-d3o-35" value="&lt;span style=&quot;font-size: 18px;&quot;&gt;DEPARTAMENTO&lt;/span&gt;" style="rounded=0;whiteSpace=wrap;html=1;" vertex="1" parent="1">
          <mxGeometry x="697.5" y="-1389" width="170" height="100" as="geometry" />
        </mxCell>
        <mxCell id="qxUChrG7EULnIq1A-d3o-37" value="&lt;font style=&quot;font-size: 18px;&quot;&gt;TITULOS Y OTROS GASTO&lt;/font&gt;" style="rounded=0;whiteSpace=wrap;html=1;" vertex="1" parent="1">
          <mxGeometry x="1370" y="-1389" width="220" height="100" as="geometry" />
        </mxCell>
        <mxCell id="qxUChrG7EULnIq1A-d3o-39" value="" style="endArrow=classic;html=1;rounded=0;entryX=0.5;entryY=0;entryDx=0;entryDy=0;" edge="1" parent="1" target="MJWi9brYNOk2Rg-yx1QD-145">
          <mxGeometry width="50" height="50" relative="1" as="geometry">
            <mxPoint x="147.5" y="-1457" as="sourcePoint" />
            <mxPoint x="148.22000000000006" y="-1389" as="targetPoint" />
          </mxGeometry>
        </mxCell>
        <mxCell id="qxUChrG7EULnIq1A-d3o-40" value="" style="endArrow=classic;html=1;rounded=0;entryX=0.5;entryY=0;entryDx=0;entryDy=0;jumpSize=9;" edge="1" parent="1">
          <mxGeometry width="50" height="50" relative="1" as="geometry">
            <mxPoint x="397.5" y="-1457" as="sourcePoint" />
            <mxPoint x="398.36" y="-1389" as="targetPoint" />
          </mxGeometry>
        </mxCell>
        <mxCell id="qxUChrG7EULnIq1A-d3o-41" value="" style="endArrow=classic;html=1;rounded=0;entryX=0.5;entryY=0;entryDx=0;entryDy=0;" edge="1" parent="1">
          <mxGeometry width="50" height="50" relative="1" as="geometry">
            <mxPoint x="781.91" y="-1457" as="sourcePoint" />
            <mxPoint x="781.91" y="-1389" as="targetPoint" />
          </mxGeometry>
        </mxCell>
        <mxCell id="qxUChrG7EULnIq1A-d3o-42" value="" style="endArrow=classic;html=1;rounded=0;entryX=0.5;entryY=0;entryDx=0;entryDy=0;" edge="1" parent="1">
          <mxGeometry width="50" height="50" relative="1" as="geometry">
            <mxPoint x="1157.4999999999998" y="-1457" as="sourcePoint" />
            <mxPoint x="1157.4999999999998" y="-1389" as="targetPoint" />
          </mxGeometry>
        </mxCell>
        <mxCell id="qxUChrG7EULnIq1A-d3o-43" value="" style="endArrow=classic;html=1;rounded=0;entryX=0.5;entryY=0;entryDx=0;entryDy=0;" edge="1" parent="1">
          <mxGeometry width="50" height="50" relative="1" as="geometry">
            <mxPoint x="1448.5" y="-1457" as="sourcePoint" />
            <mxPoint x="1448.5" y="-1389" as="targetPoint" />
          </mxGeometry>
        </mxCell>
        <mxCell id="qxUChrG7EULnIq1A-d3o-48" value="" style="edgeStyle=orthogonalEdgeStyle;rounded=0;orthogonalLoop=1;jettySize=auto;html=1;" edge="1" parent="1" source="qxUChrG7EULnIq1A-d3o-45" target="qxUChrG7EULnIq1A-d3o-35">
          <mxGeometry relative="1" as="geometry" />
        </mxCell>
        <mxCell id="qxUChrG7EULnIq1A-d3o-45" value="&lt;p style=&quot;mso-margin-top-alt:auto;mso-margin-bottom-alt:auto;&amp;lt;br/&amp;gt;line-height:normal&quot; class=&quot;MsoNormal&quot;&gt;&lt;span style=&quot;font-family: Helvetica, sans-serif; background-image: initial; background-position: initial; background-size: initial; background-repeat: initial; background-attachment: initial; background-origin: initial; background-clip: initial;&quot;&gt;&lt;font style=&quot;font-size: 11px;&quot;&gt;PERTENECE&lt;/font&gt;&lt;/span&gt;&lt;/p&gt;" style="rhombus;whiteSpace=wrap;html=1;" vertex="1" parent="1">
          <mxGeometry x="557.5" y="-1379" width="80" height="80" as="geometry" />
        </mxCell>
        <mxCell id="qxUChrG7EULnIq1A-d3o-51" value="" style="edgeStyle=orthogonalEdgeStyle;rounded=0;orthogonalLoop=1;jettySize=auto;html=1;" edge="1" parent="1" source="qxUChrG7EULnIq1A-d3o-49" target="qxUChrG7EULnIq1A-d3o-34">
          <mxGeometry relative="1" as="geometry" />
        </mxCell>
        <mxCell id="qxUChrG7EULnIq1A-d3o-49" value="&lt;p style=&quot;mso-margin-top-alt:auto;mso-margin-bottom-alt:auto;&lt;br/&gt;line-height:normal&quot; class=&quot;MsoNormal&quot;&gt;&lt;span style=&quot;font-size: 9pt; font-family: Helvetica, sans-serif; background-image: initial; background-position: initial; background-size: initial; background-repeat: initial; background-attachment: initial; background-origin: initial; background-clip: initial;&quot;&gt;OPERA&lt;/span&gt;&lt;/p&gt;" style="rhombus;whiteSpace=wrap;html=1;" vertex="1" parent="1">
          <mxGeometry x="937.5" y="-1379" width="80" height="80" as="geometry" />
        </mxCell>
        <mxCell id="qxUChrG7EULnIq1A-d3o-59" style="edgeStyle=orthogonalEdgeStyle;rounded=0;orthogonalLoop=1;jettySize=auto;html=1;entryX=0.5;entryY=1;entryDx=0;entryDy=0;" edge="1" parent="1" source="qxUChrG7EULnIq1A-d3o-52" target="qxUChrG7EULnIq1A-d3o-37">
          <mxGeometry relative="1" as="geometry" />
        </mxCell>
        <mxCell id="qxUChrG7EULnIq1A-d3o-52" value="&lt;p style=&quot;mso-margin-top-alt:auto;mso-margin-bottom-alt:auto;&lt;br/&gt;line-height:normal&quot; class=&quot;MsoNormal&quot;&gt;&lt;span style=&quot;font-size: 9pt; font-family: Helvetica, sans-serif; background-image: initial; background-position: initial; background-size: initial; background-repeat: initial; background-attachment: initial; background-origin: initial; background-clip: initial;&quot;&gt;PRODUCE&lt;/span&gt;&lt;/p&gt;" style="rhombus;whiteSpace=wrap;html=1;" vertex="1" parent="1">
          <mxGeometry x="742.5" y="-1240" width="80" height="80" as="geometry" />
        </mxCell>
        <mxCell id="qxUChrG7EULnIq1A-d3o-60" value="&lt;p style=&quot;mso-margin-top-alt:auto;mso-margin-bottom-alt:auto;&amp;lt;br/&amp;gt;line-height:normal&quot; class=&quot;MsoNormal&quot;&gt;&lt;span style=&quot;font-family: Helvetica, sans-serif; background-image: initial; background-position: initial; background-size: initial; background-repeat: initial; background-attachment: initial; background-origin: initial; background-clip: initial;&quot;&gt;&lt;font style=&quot;font-size: 11px;&quot;&gt;ALMACENADO&lt;/font&gt;&lt;/span&gt;&lt;/p&gt;" style="rhombus;whiteSpace=wrap;html=1;" vertex="1" parent="1">
          <mxGeometry x="90" y="-1240" width="87.5" height="80" as="geometry" />
        </mxCell>
        <mxCell id="qxUChrG7EULnIq1A-d3o-63" style="edgeStyle=orthogonalEdgeStyle;rounded=0;orthogonalLoop=1;jettySize=auto;html=1;entryX=0.644;entryY=0.983;entryDx=0;entryDy=0;entryPerimeter=0;exitX=1;exitY=0.5;exitDx=0;exitDy=0;" edge="1" parent="1" source="qxUChrG7EULnIq1A-d3o-60">
          <mxGeometry relative="1" as="geometry">
            <mxPoint x="254.5" y="-1200" as="sourcePoint" />
            <mxPoint x="1222.9199999999996" y="-1288.9999999999998" as="targetPoint" />
            <Array as="points">
              <mxPoint x="220" y="-1200" />
              <mxPoint x="220" y="-1198" />
              <mxPoint x="250" y="-1198" />
              <mxPoint x="250" y="-1148" />
              <mxPoint x="1223" y="-1148" />
            </Array>
          </mxGeometry>
        </mxCell>
      </root>
    </mxGraphModel>
  </diagram>
</mxfile>
